<svg width="93.249" height="93.249" version="1.1" viewBox="0 0 93.249 93.249" xml:space="preserve"
    xmlns="http://www.w3.org/2000/svg">
<style/>
<defs>
<clipPath id="clipPath22">
<path d="M 0,85.299 H 84.611 V 0 H 0 Z"/>
</clipPath>
</defs>
<g transform="matrix(1.3333 0 0 -1.3333 -10.977 104.25)">
<g transform="scale(.977 -1.0235)" fill="#fff" stroke-width=".977" aria-label="OPTED">
<path d="m28.986-37.806c2.691 0 4.381-1.794 4.381-4.615 0-2.34-1.43-4.433-4.251-4.433-2.691 0-4.355 2.028-4.355 4.576 0 2.431 1.495 4.472 4.212 4.472zm0.078-1.859c-1.131 0-1.833-1.092-1.82-2.665 0-1.521 0.689-2.665 1.82-2.665 1.144 0 1.82 1.144 1.82 2.652 0 1.586-0.663 2.678-1.794 2.678z"/>
<path d="m34.615-37.949h2.327v-2.977c0.143 0 0.338 0.026 0.572 0.026 1.183 0 2.21-0.286 2.912-0.91 0.559-0.507 0.858-1.274 0.858-2.158 0-0.897-0.403-1.664-1.001-2.106-0.611-0.468-1.521-0.702-2.782-0.702-1.326 0-2.249 0.091-2.886 0.195zm2.327-7.007c0.117-0.026 0.351-0.052 0.689-0.052 0.897 0 1.326 0.442 1.326 1.092 0 0.754-0.572 1.222-1.482 1.222-0.247 0-0.403-0.013-0.533-0.026z"/>
<path d="m44.144-37.949h2.353v-6.786h2.275v-1.976h-6.864v1.976h2.236z"/>
<path d="m55.35-43.383h-3.146v-1.404h3.341v-1.924h-5.694v8.762h5.876v-1.924h-3.523v-1.612h3.146z"/>
<path d="m57.027-38.001c0.455 0.078 1.209 0.156 2.34 0.156 1.716 0 3.159-0.325 4.121-1.079 0.845-0.663 1.521-1.82 1.521-3.614 0-1.612-0.624-2.704-1.586-3.367-0.858-0.598-1.924-0.871-3.601-0.871-1.04 0-2.041 0.065-2.795 0.195zm2.353-6.929c0.117-0.026 0.351-0.052 0.715-0.052 1.404 0 2.431 0.806 2.431 2.522 0 1.976-1.131 2.821-2.652 2.795-0.156 0-0.377 0-0.494-0.026z"/>
</g>
<g clip-path="url(#clipPath22)">
<g transform="translate(43.202 78.19)">
<path d="m0 0c-19.313 0-34.969-15.656-34.969-34.969 0-19.311 15.656-34.968 34.969-34.968 19.312 0 34.968 15.657 34.968 34.968 0 19.313-15.656 34.969-34.968 34.969m0-5c16.524 0 29.968-13.444 29.968-29.969 0-16.524-13.444-29.968-29.968-29.968-16.525 0-29.969 13.444-29.969 29.968 0 16.525 13.444 29.969 29.969 29.969" fill="#0e68b9"/>
</g>
<g transform="translate(37.813 69.591)">
<path d="m0 0c-2.506-0.885-14.032-5.244-18.459-16.624-4.973-12.784 0.723-21.806 3.21-25.911 0.465-0.767-5.067 13.25-0.023 24.944 2.844 6.592 7.032 11.771 15.272 17.591" fill="#0e68b9"/>
</g>
<g transform="translate(67.794 50.387)">
<path d="m0 0s2-6.123 0.344-12.898c-1.877-7.68-7.452-12.554-7.452-12.554s3.525 4.819 5.618 12.898c1.876 7.244 1.49 12.554 1.49 12.554" fill="#0e68b9"/>
</g>
</g>
</g>
</svg>